<?xml version="1.0" encoding="utf-8"?>
<!-- Generator: Adobe Illustrator 18.0.0, SVG Export Plug-In . SVG Version: 6.00 Build 0)  -->
<!DOCTYPE svg PUBLIC "-//W3C//DTD SVG 1.1//EN" "http://www.w3.org/Graphics/SVG/1.1/DTD/svg11.dtd">
<svg version="1.1" xmlns="http://www.w3.org/2000/svg" xmlns:xlink="http://www.w3.org/1999/xlink" x="0px" y="0px"
	 viewBox="0 0 766 165.745" enable-background="new 0 0 766 165.745" xml:space="preserve" width="766" height="166">
<g id="black_background" display="none">
	<rect x="0" display="inline" fill="#777777" width="766" height="100"/>
</g>
<g id="Layer_1">
	<g>
		<path fill="#FFFFFF" d="M24.605,52.367c-0.906,0.4-1.879,0.674-2.9,0.795c1.043-0.625,1.85-1.613,2.229-2.793
			c-0.98,0.578-2.063,0.999-3.207,1.225C19.798,50.611,18.484,50,17.031,50c-2.787,0-5.049,2.26-5.049,5.049
			c0,0.395,0.045,0.781,0.131,1.15c-4.195-0.211-7.916-2.221-10.406-5.275c-0.435,0.746-0.684,1.613-0.684,2.539
			c0,1.751,0.891,3.297,2.246,4.202c-0.828-0.026-1.607-0.254-2.287-0.632c0,0.021,0,0.043,0,0.062c0,2.446,1.74,4.487,4.051,4.951
			c-0.424,0.114-0.871,0.177-1.332,0.177c-0.323,0-0.641-0.031-0.948-0.09c0.647,2.008,2.515,3.467,4.724,3.508
			C5.746,66.995,3.57,67.8,1.205,67.8c-0.402,0-0.811-0.021-1.205-0.069c2.234,1.437,4.895,2.271,7.74,2.271
			c9.287,0,14.365-7.691,14.365-14.366c0-0.218-0.004-0.437-0.019-0.651C23.07,54.27,23.927,53.38,24.605,52.367L24.605,52.367z"/>
	</g>
	<path fill="#FFFFFF" d="M87,58.75h-3.125v-3.125h-2.5v3.125H78.25v2.5h3.125v3.125h2.5V61.25H87 M67,58.125v3.9h5.451
		c-0.42,2.35-2.457,4.063-5.451,4.063c-3.299,0-5.979-2.795-5.979-6.094c0-3.301,2.682-6.088,5.979-6.088
		c1.486,0,2.818,0.514,3.869,1.512v0.006l2.818-2.818C71.957,50.993,69.699,50,67,50c-5.521,0-10,4.475-10,10
		c0,5.523,4.479,10,10,10c5.773,0,9.604-4.062,9.604-9.775c0-0.729-0.068-1.43-0.193-2.1H67z"/>
	<g>
		<path fill="#FFFFFF" d="M35,50c-5.523,0-10,4.479-10,10c0,4.236,2.635,7.856,6.354,9.311c-0.09-0.789-0.166-2.004,0.031-2.867
			c0.188-0.775,1.178-4.967,1.178-4.967s-0.305-0.6-0.305-1.483c0-1.392,0.813-2.429,1.814-2.429c0.854,0,1.266,0.641,1.266,1.408
			c0,0.857-0.545,2.139-0.828,3.328c-0.229,0.996,0.498,1.812,1.48,1.812c1.771,0,3.145-1.875,3.145-4.583
			c0-2.396-1.721-4.067-4.178-4.067c-2.846,0-4.516,2.137-4.516,4.34c0,0.859,0.328,1.781,0.738,2.281
			c0.082,0.102,0.1,0.188,0.068,0.287c-0.076,0.313-0.244,0.996-0.277,1.135c-0.043,0.188-0.145,0.227-0.334,0.137
			c-1.247-0.58-2.024-2.41-2.024-3.875c0-3.154,2.293-6.055,6.604-6.055c3.475,0,6.164,2.475,6.164,5.776
			c0,3.448-2.172,6.221-5.188,6.221c-1.021,0-1.969-0.522-2.293-1.145c0,0-0.5,1.904-0.623,2.375
			c-0.23,0.867-0.834,1.957-1.242,2.623c0.936,0.287,1.93,0.441,2.961,0.441c5.521,0,10-4.479,10-10C45,54.482,40.523,50,35,50z"/>
	</g>
	<path fill="#FFFFFF" d="M52.735,70v-9.123H55.8l0.459-3.559h-3.521v-2.268c0-1.027,0.285-1.729,1.768-1.729h1.881v-3.184
		C56.053,50.098,54.937,50,53.639,50c-2.717,0-4.574,1.656-4.574,4.699v2.619H46v3.559h3.064V70H52.735z"/>
	<g>
		<path fill="#FFFFFF" d="M29.533,2.841c-1.087,0.481-2.254,0.808-3.48,0.954c1.251-0.75,2.212-1.938,2.664-3.352
			c-1.171,0.692-2.468,1.197-3.848,1.47C23.764,0.734,22.189,0,20.446,0c-3.346,0-6.059,2.713-6.059,6.059
			c0,0.476,0.053,0.938,0.157,1.381c-5.035-0.252-9.5-2.664-12.488-6.33c-0.522,0.896-0.82,1.937-0.82,3.047
			c0,2.102,1.07,3.955,2.695,5.043C2.938,9.167,2.003,8.895,1.187,8.44c0,0.025,0,0.052,0,0.076c0,2.937,2.089,5.384,4.861,5.941
			c-0.51,0.139-1.045,0.213-1.598,0.213c-0.391,0-0.771-0.038-1.14-0.109c0.771,2.408,3.009,4.16,5.66,4.209
			c-2.073,1.625-4.686,2.598-7.525,2.598c-0.489,0-0.972-0.028-1.445-0.084C2.681,22.997,5.866,24,9.288,24
			c11.145,0,17.239-9.232,17.239-17.239c0-0.263-0.006-0.521-0.017-0.782C27.693,5.123,28.72,4.057,29.533,2.841L29.533,2.841z"/>
	</g>
	<path fill="#FFFFFF" d="M155,10.5h-3.75V6.75h-3v3.75h-3.75v3h3.75v3.75h3V13.5H155 M131,9.75v4.68h6.541
		c-0.503,2.82-2.948,4.875-6.541,4.875c-3.959,0-7.177-3.353-7.177-7.312c0-3.959,3.218-7.306,7.177-7.306
		c1.784,0,3.383,0.615,4.642,1.814V6.51l3.383-3.383C136.948,1.191,134.24,0,131,0c-6.63,0-12,5.37-12,12c0,6.63,5.37,12,12,12
		c6.93,0,11.52-4.875,11.52-11.73c0-0.877-0.082-1.717-0.232-2.52H131z"/>
	<g>
		<path fill="#FFFFFF" d="M72.081,0H89.92c1.695,0,3.081,1.254,3.081,3.08v17.84c0,1.826-1.386,3.08-3.081,3.08H72.081
			C70.386,24,69,22.746,69,20.92V3.08C69,1.254,70.386,0,72.081,0L72.081,0z M86.483,2.666c-0.594,0-1.08,0.486-1.08,1.081v2.587
			c0,0.594,0.486,1.08,1.08,1.08h2.714c0.593,0,1.079-0.486,1.079-1.08V3.747c0-0.595-0.486-1.081-1.079-1.081H86.483z
			 M90.288,10.148h-2.113c0.2,0.652,0.308,1.345,0.308,2.06c0,3.992-3.34,7.229-7.46,7.229c-4.119,0-7.46-3.237-7.46-7.229
			c0-0.715,0.108-1.406,0.308-2.06h-2.203v10.139c0,0.525,0.429,0.955,0.955,0.955h16.711c0.526,0,0.954-0.43,0.954-0.955V10.148
			L90.288,10.148z M81.023,7.277c-2.662,0-4.819,2.091-4.819,4.671c0,2.579,2.158,4.671,4.819,4.671c2.662,0,4.82-2.092,4.82-4.671
			C85.843,9.368,83.686,7.277,81.023,7.277L81.023,7.277z"/>
	</g>
	<g>
		<path fill="#FFFFFF" d="M42,0c-6.628,0-12,5.373-12,12c0,5.084,3.163,9.426,7.626,11.174c-0.104-0.949-0.2-2.404,0.042-3.441
			c0.218-0.938,1.407-5.965,1.407-5.965s-0.359-0.719-0.359-1.781c0-1.668,0.967-2.914,2.171-2.914c1.023,0,1.519,0.769,1.519,1.688
			c0,1.029-0.655,2.568-0.994,3.995c-0.283,1.194,0.598,2.169,1.776,2.169c2.133,0,3.773-2.249,3.773-5.494
			c0-2.873-2.065-4.883-5.014-4.883c-3.414,0-5.418,2.561-5.418,5.207c0,1.031,0.398,2.142,0.893,2.738
			c0.099,0.118,0.113,0.223,0.083,0.345c-0.091,0.379-0.293,1.194-0.333,1.361c-0.052,0.22-0.173,0.266-0.401,0.156
			c-1.499-0.694-2.436-2.891-2.436-4.646c0-3.785,2.751-7.262,7.93-7.262c4.163,0,7.397,2.967,7.397,6.931
			c0,4.14-2.607,7.465-6.227,7.465c-1.216,0-2.359-0.632-2.75-1.378c0,0-0.602,2.291-0.748,2.854
			c-0.271,1.043-1.002,2.351-1.492,3.146C39.57,23.813,40.763,24,42,24c6.627,0,12-5.373,12-12S48.628,0,42,0z"/>
	</g>
	<g>
		<path fill="#FFFFFF" d="M116.681,1.32c-0.88-0.881-1.94-1.32-3.18-1.32h-15c-1.239,0-2.299,0.439-3.18,1.32
			c-0.88,0.88-1.32,1.939-1.32,3.18v15c0,1.239,0.44,2.299,1.32,3.18c0.88,0.881,1.94,1.32,3.18,1.32h15
			c1.239,0,2.299-0.439,3.18-1.32c0.88-0.881,1.32-1.938,1.32-3.18v-15C118.001,3.261,117.56,2.2,116.681,1.32L116.681,1.32z
			 M103.938,14.344c-0.646,0.646-1.427,0.969-2.344,0.969s-1.698-0.318-2.344-0.969c-0.646-0.646-0.969-1.428-0.969-2.344
			c0-0.917,0.323-1.698,0.969-2.344c0.646-0.646,1.427-0.969,2.344-0.969s1.698,0.322,2.344,0.969
			c0.646,0.646,0.969,1.427,0.969,2.344C104.907,12.916,104.584,13.698,103.938,14.344L103.938,14.344z M112.75,14.344
			c-0.645,0.646-1.426,0.969-2.343,0.969s-1.698-0.318-2.344-0.969c-0.646-0.646-0.969-1.428-0.969-2.344
			c0-0.917,0.323-1.698,0.969-2.344c0.646-0.646,1.427-0.969,2.344-0.969s1.698,0.322,2.343,0.969
			c0.646,0.646,0.97,1.427,0.97,2.344C113.72,12.916,113.396,13.698,112.75,14.344L112.75,14.344z"/>
	</g>
	<g>
		<path fill="#FFFFFF" d="M203.636,11.428c-0.092,0.066-0.185,0.129-0.277,0.191V2.332c0-1.289-0.969-2.332-2.163-2.332H184.37
			c-1.193,0-2.163,1.043-2.163,2.332v9.295c-0.096-0.064-0.192-0.131-0.289-0.199c-0.717-0.5-1.187,0.182-0.747,0.831
			c0.854,1.048,2.482,2.351,4.976,3.374c-2.639,8.988,6.44,10.416,6.301,5.809c0,0.086,0.005-2.612,0.009-4.528
			c0.238,0.057,0.445,0.106,0.639,0.155c0.005,1.902,0.009,4.457,0.009,4.373c-0.139,4.607,8.945,3.185,6.301-5.809
			c2.494-1.023,4.121-2.326,4.975-3.374C204.823,11.609,204.353,10.928,203.636,11.428L203.636,11.428z M194.678,13.718
			c-1.11-0.056-1.522,0.423-1.576,1.158c-0.268-0.19-0.54-0.417-0.821-0.677c-0.046-0.044-0.09-0.083-0.133-0.118
			c-0.244-0.256-0.646-0.396-1.271-0.363c-1.487,0.046-4.212,0.343-7.385-1.321V3.385c0-1.632,0.416-2.145,1.91-2.145h14.892
			c1.416,0,1.916,0.609,1.916,2.145v8.938C198.974,14.07,196.189,13.766,194.678,13.718L194.678,13.718z"/>
		<path fill="#FFFFFF" d="M196.306,7.205c-1.597,0-2.893,1.21-2.893,2.705c0,1.494,1.296,2.704,2.893,2.704
			c1.596,0,2.892-1.21,2.892-2.704C199.197,8.415,197.901,7.205,196.306,7.205L196.306,7.205z"/>
		<path fill="#FFFFFF" d="M192.466,9.91c0,1.494-1.294,2.704-2.892,2.704c-1.597,0-2.891-1.21-2.891-2.704
			c0-1.494,1.294-2.705,2.891-2.705C191.171,7.205,192.466,8.416,192.466,9.91L192.466,9.91z"/>
	</g>
	<path fill="#FFFFFF" d="M63.091,24V13.053h3.673l0.55-4.269H63.09v-2.72c0-1.234,0.342-2.078,2.114-2.078h2.258V0.167
		C67.07,0.117,65.732,0,64.172,0c-3.259,0-5.49,1.986-5.49,5.639v3.146H55v4.271h3.682V24H63.091z"/>
	<g>
		<path fill="#FFFFFF" d="M165.814,14.63c1.801-0.933,3.585-1.858,5.386-2.792c-1.811-0.943-3.591-1.874-5.386-2.813V14.63z"/>
		<path fill="#FFFFFF" d="M168.001,0C161.373,0,156,5.372,156,12.001C156,18.628,161.373,24,168.001,24
			C174.628,24,180,18.628,180,12.001C180,5.372,174.628,0,168.001,0L168.001,0z M176.177,16.006c-0.208,0.9-0.94,1.564-1.832,1.664
			c-2.102,0.235-4.228,0.236-6.345,0.235c-2.117,0.001-4.244,0-6.346-0.235c-0.892-0.1-1.623-0.764-1.831-1.664
			c-0.296-1.283-0.296-2.686-0.296-4.005c0-1.321,0.004-2.724,0.299-4.007c0.207-0.9,0.94-1.564,1.832-1.664
			c2.101-0.235,4.228-0.236,6.345-0.235c2.117-0.001,4.244,0,6.345,0.235c0.893,0.1,1.625,0.764,1.833,1.664
			c0.296,1.283,0.292,2.686,0.292,4.007C176.473,13.32,176.472,14.723,176.177,16.006L176.177,16.006z"/>
	</g>
	<g>
		<path fill="#FEC325" d="M29.533,27.841c-1.087,0.482-2.254,0.808-3.48,0.954c1.251-0.75,2.212-1.938,2.664-3.352
			c-1.171,0.691-2.468,1.197-3.848,1.47C23.764,25.734,22.189,25,20.446,25c-3.346,0-6.059,2.713-6.059,6.059
			c0,0.477,0.053,0.939,0.157,1.381c-5.035-0.252-9.5-2.664-12.488-6.33c-0.522,0.896-0.82,1.938-0.82,3.048
			c0,2.102,1.07,3.954,2.695,5.043c-0.993-0.033-1.928-0.306-2.744-0.761c0,0.025,0,0.053,0,0.076c0,2.938,2.089,5.385,4.861,5.941
			c-0.51,0.139-1.045,0.213-1.598,0.213c-0.391,0-0.771-0.038-1.14-0.109c0.771,2.408,3.009,4.16,5.66,4.209
			c-2.073,1.625-4.686,2.599-7.525,2.599c-0.489,0-0.972-0.028-1.445-0.084C2.681,47.997,5.866,49,9.288,49
			c11.145,0,17.239-9.232,17.239-17.239c0-0.263-0.006-0.521-0.017-0.782C27.693,30.123,28.72,29.057,29.533,27.841L29.533,27.841z"
			/>
	</g>
	<path fill="#FEC325" d="M155,35.5h-3.75v-3.75h-3v3.75h-3.75v3h3.75v3.75h3V38.5H155 M131,34.75v4.68h6.541
		c-0.503,2.82-2.948,4.875-6.541,4.875c-3.959,0-7.177-3.353-7.177-7.312c0-3.959,3.218-7.306,7.177-7.306
		c1.784,0,3.383,0.614,4.642,1.813v0.009l3.383-3.383C136.948,26.191,134.24,25,131,25c-6.63,0-12,5.37-12,12c0,6.63,5.37,12,12,12
		c6.93,0,11.52-4.875,11.52-11.73c0-0.877-0.082-1.717-0.232-2.52H131z"/>
	<g>
		<path fill="#FEC325" d="M72.081,25H89.92c1.695,0,3.081,1.254,3.081,3.08v17.84c0,1.826-1.386,3.08-3.081,3.08H72.081
			C70.386,49,69,47.746,69,45.92V28.08C69,26.254,70.386,25,72.081,25L72.081,25z M86.483,27.666c-0.594,0-1.08,0.486-1.08,1.081
			v2.587c0,0.594,0.486,1.08,1.08,1.08h2.714c0.593,0,1.079-0.486,1.079-1.08v-2.587c0-0.595-0.486-1.081-1.079-1.081H86.483z
			 M90.288,35.148h-2.113c0.2,0.651,0.308,1.345,0.308,2.06c0,3.992-3.34,7.23-7.46,7.23c-4.119,0-7.46-3.237-7.46-7.23
			c0-0.715,0.108-1.406,0.308-2.06h-2.203v10.139c0,0.525,0.429,0.955,0.955,0.955h16.711c0.526,0,0.954-0.43,0.954-0.955V35.148
			L90.288,35.148z M81.023,32.277c-2.662,0-4.819,2.091-4.819,4.671c0,2.579,2.158,4.671,4.819,4.671c2.662,0,4.82-2.092,4.82-4.671
			C85.843,34.368,83.686,32.277,81.023,32.277L81.023,32.277z"/>
	</g>
	<g>
		<path fill="#FEC325" d="M42,25c-6.628,0-12,5.373-12,12c0,5.084,3.163,9.426,7.626,11.174c-0.104-0.949-0.2-2.404,0.042-3.441
			c0.218-0.938,1.407-5.965,1.407-5.965s-0.359-0.719-0.359-1.781c0-1.668,0.967-2.913,2.171-2.913c1.023,0,1.519,0.769,1.519,1.688
			c0,1.029-0.655,2.568-0.994,3.995c-0.283,1.194,0.598,2.169,1.776,2.169c2.133,0,3.773-2.249,3.773-5.493
			c0-2.873-2.065-4.884-5.014-4.884c-3.414,0-5.418,2.562-5.418,5.207c0,1.031,0.398,2.142,0.893,2.738
			c0.099,0.118,0.113,0.223,0.083,0.345c-0.091,0.379-0.293,1.194-0.333,1.361c-0.052,0.22-0.173,0.266-0.401,0.156
			c-1.499-0.694-2.436-2.892-2.436-4.647c0-3.785,2.751-7.262,7.93-7.262c4.163,0,7.397,2.967,7.397,6.931
			c0,4.14-2.607,7.465-6.227,7.465c-1.216,0-2.359-0.632-2.75-1.378c0,0-0.602,2.291-0.748,2.854
			c-0.271,1.043-1.002,2.351-1.492,3.146C39.57,48.813,40.763,49,42,49c6.627,0,12-5.373,12-12S48.628,25,42,25z"/>
	</g>
	<g>
		<path fill="#FEC325" d="M116.681,26.32c-0.88-0.881-1.94-1.32-3.18-1.32h-15c-1.239,0-2.299,0.44-3.18,1.32
			c-0.88,0.88-1.32,1.938-1.32,3.18v15c0,1.239,0.44,2.299,1.32,3.18c0.88,0.881,1.94,1.32,3.18,1.32h15
			c1.239,0,2.299-0.439,3.18-1.32c0.88-0.881,1.32-1.938,1.32-3.18v-15C118.001,28.261,117.56,27.2,116.681,26.32L116.681,26.32z
			 M103.938,39.344c-0.646,0.646-1.427,0.969-2.344,0.969s-1.698-0.317-2.344-0.969c-0.646-0.646-0.969-1.428-0.969-2.344
			c0-0.917,0.323-1.698,0.969-2.344c0.646-0.646,1.427-0.969,2.344-0.969s1.698,0.321,2.344,0.969
			c0.646,0.646,0.969,1.427,0.969,2.344C104.907,37.916,104.584,38.698,103.938,39.344L103.938,39.344z M112.75,39.344
			c-0.645,0.646-1.426,0.969-2.343,0.969s-1.698-0.317-2.344-0.969c-0.646-0.646-0.969-1.428-0.969-2.344
			c0-0.917,0.323-1.698,0.969-2.344c0.646-0.646,1.427-0.969,2.344-0.969s1.698,0.321,2.343,0.969
			c0.646,0.646,0.97,1.427,0.97,2.344C113.72,37.916,113.396,38.698,112.75,39.344L112.75,39.344z"/>
	</g>
	<g>
		<path fill="#FEC325" d="M203.636,36.428c-0.092,0.066-0.185,0.129-0.277,0.191v-9.287c0-1.289-0.969-2.332-2.163-2.332H184.37
			c-1.193,0-2.163,1.043-2.163,2.332v9.295c-0.096-0.064-0.192-0.131-0.289-0.199c-0.717-0.5-1.187,0.182-0.747,0.831
			c0.854,1.048,2.482,2.351,4.976,3.374c-2.639,8.988,6.44,10.416,6.301,5.809c0,0.086,0.005-2.611,0.009-4.527
			c0.238,0.057,0.445,0.105,0.639,0.154c0.005,1.902,0.009,4.457,0.009,4.373c-0.139,4.607,8.945,3.186,6.301-5.809
			c2.494-1.023,4.121-2.326,4.975-3.374C204.823,36.609,204.353,35.928,203.636,36.428L203.636,36.428z M194.678,38.718
			c-1.11-0.056-1.522,0.423-1.576,1.158c-0.268-0.19-0.54-0.417-0.821-0.677c-0.046-0.044-0.09-0.083-0.133-0.118
			c-0.244-0.256-0.646-0.396-1.271-0.363c-1.487,0.046-4.212,0.343-7.385-1.321v-9.012c0-1.632,0.416-2.145,1.91-2.145h14.892
			c1.416,0,1.916,0.609,1.916,2.145v8.938C198.974,39.07,196.189,38.766,194.678,38.718L194.678,38.718z"/>
		<path fill="#FEC325" d="M196.306,32.205c-1.597,0-2.893,1.21-2.893,2.705c0,1.494,1.296,2.704,2.893,2.704
			c1.596,0,2.892-1.21,2.892-2.704C199.197,33.415,197.901,32.205,196.306,32.205L196.306,32.205z"/>
		<path fill="#FEC325" d="M192.466,34.91c0,1.494-1.294,2.704-2.892,2.704c-1.597,0-2.891-1.21-2.891-2.704
			c0-1.494,1.294-2.705,2.891-2.705C191.171,32.205,192.466,33.416,192.466,34.91L192.466,34.91z"/>
	</g>
	<path fill="#FEC325" d="M63.091,49V38.053h3.673l0.55-4.27H63.09v-2.721c0-1.233,0.342-2.078,2.114-2.078h2.258v-3.817
		C67.07,25.117,65.732,25,64.172,25c-3.259,0-5.49,1.986-5.49,5.639v3.146H55v4.271h3.682V49H63.091z"/>
	<g>
		<path fill="#FEC325" d="M165.814,39.63c1.801-0.933,3.585-1.858,5.386-2.792c-1.811-0.943-3.591-1.874-5.386-2.813V39.63z"/>
		<path fill="#FEC325" d="M168.001,25C161.373,25,156,30.372,156,37.001C156,43.628,161.373,49,168.001,49
			C174.628,49,180,43.628,180,37.001C180,30.372,174.628,25,168.001,25L168.001,25z M176.177,41.006
			c-0.208,0.9-0.94,1.564-1.832,1.664c-2.102,0.235-4.228,0.236-6.345,0.235c-2.117,0.001-4.244,0-6.346-0.235
			c-0.892-0.1-1.623-0.764-1.831-1.664c-0.296-1.283-0.296-2.686-0.296-4.005c0-1.321,0.004-2.724,0.299-4.007
			c0.207-0.9,0.94-1.564,1.832-1.664c2.101-0.235,4.228-0.236,6.345-0.235c2.117-0.001,4.244,0,6.345,0.235
			c0.893,0.1,1.625,0.764,1.833,1.664c0.296,1.283,0.292,2.686,0.292,4.007C176.473,38.32,176.472,39.723,176.177,41.006
			L176.177,41.006z"/>
	</g>
	<g>
		<path fill="#FFFFFF" d="M229.184,20c0.572,0,1.068-0.189,1.49-0.563l-7.211-7.211c-0.174,0.125-0.342,0.244-0.5,0.359
			c-0.541,0.396-0.979,0.707-1.311,0.933c-0.344,0.225-0.785,0.446-1.352,0.684c-0.559,0.23-1.078,0.348-1.561,0.348h-0.027
			c-0.479,0-1.004-0.113-1.563-0.348c-0.563-0.233-1.014-0.459-1.348-0.684c-0.336-0.226-0.77-0.533-1.313-0.933
			c-0.15-0.111-0.316-0.232-0.498-0.361l-7.213,7.213c0.422,0.373,0.918,0.563,1.49,0.563H229.184z"/>
		<path fill="#FFFFFF" d="M207.439,7.686c-0.541-0.359-1.021-0.771-1.438-1.235v10.973l6.354-6.356
			C211.086,10.177,209.448,9.051,207.439,7.686L207.439,7.686z"/>
		<path fill="#FFFFFF" d="M230.038,7.686c-1.936,1.311-3.58,2.437-4.934,3.381l6.354,6.355V6.449
			C231.051,6.902,230.577,7.314,230.038,7.686L230.038,7.686z"/>
		<path fill="#FFFFFF" d="M229.184,0h-20.905c-0.729,0-1.291,0.246-1.688,0.738C206.197,1.23,206,1.843,206,2.586
			c0,0.596,0.262,1.242,0.781,1.938c0.52,0.697,1.07,1.244,1.662,1.642c0.314,0.228,1.293,0.901,2.906,2.024
			c0.875,0.605,1.641,1.136,2.289,1.591c0.563,0.388,1.035,0.723,1.438,1.002c0.045,0.03,0.115,0.084,0.211,0.149
			c0.102,0.073,0.229,0.168,0.393,0.283c0.313,0.223,0.564,0.402,0.771,0.539c0.205,0.139,0.451,0.291,0.74,0.463
			c0.281,0.17,0.561,0.299,0.813,0.383c0.256,0.086,0.492,0.127,0.711,0.127h0.027c0.217,0,0.455-0.041,0.711-0.127
			c0.256-0.084,0.521-0.209,0.813-0.383c0.289-0.172,0.535-0.324,0.738-0.463c0.205-0.137,0.461-0.316,0.771-0.539
			c0.15-0.115,0.285-0.21,0.391-0.283c0.096-0.065,0.168-0.119,0.213-0.149c0.313-0.216,0.789-0.55,1.438-1
			c1.183-0.817,2.909-2.021,5.212-3.617c0.688-0.481,1.27-1.065,1.729-1.746c0.467-0.684,0.7-1.4,0.7-2.147
			c0-0.625-0.225-1.16-0.676-1.607C230.334,0.223,229.801,0,229.184,0L229.184,0z"/>
	</g>
	<g>
		<path fill="#FFFFFF" d="M455,0l4,4l4-4H455z"/>
	</g>
	<g>
		<g>
			<rect x="233" y="0" fill="#FFFFFF" width="25.021" height="4.003"/>
			<rect x="233" y="8" fill="#FFFFFF" width="25" height="4"/>
			<rect x="233" y="16" fill="#FFFFFF" width="25" height="4"/>
		</g>
	</g>
	<g>
		
			<rect x="281.781" y="8.261" transform="matrix(0.7071 -0.7071 0.7071 0.7071 78.9385 211.0953)" fill="#FFFFFF" width="24.998" height="4.001"/>
		
			<rect x="281.753" y="8.253" transform="matrix(0.7071 0.7071 -0.7071 0.7071 93.4341 -205.065)" fill="#FFFFFF" width="24.999" height="4"/>
	</g>
	<g>
		<rect x="281.781" y="33.261" transform="matrix(0.7071 -0.7071 0.7071 0.7071 61.2606 218.4178)" width="24.998" height="4.001"/>
		<rect x="281.753" y="33.253" transform="matrix(0.7071 0.7071 -0.7071 0.7071 111.1118 -197.7427)" width="24.999" height="4"/>
	</g>
	<g>
		<g>
			<path fill="#FFFFFF" d="M312.684,7.682v4.559h-3.289V7.682H305V4.561h4.395V0h3.289v4.561h4.391v3.121H312.684z"/>
		</g>
	</g>
	<g>
		<path fill="#FFFFFF" d="M318,3.288V0h12.143v3.288H318z"/>
	</g>
	<g>
		<path fill="#FFFFFF" d="M231,25c-13.809,0-25,11.193-25,25c0,13.805,11.191,25,25,25c13.805,0,25-11.195,25-25
			C256,36.193,244.804,25,231,25L231,25z M231,70.311c-11.219,0-20.314-9.094-20.314-20.311c0-11.219,9.095-20.314,20.314-20.314
			c11.218,0,20.312,9.097,20.312,20.314C251.312,61.217,242.218,70.311,231,70.311L231,70.311z M224.424,39.061L243.174,50
			l-18.75,10.936V39.061z"/>
	</g>
	<g>
		<path fill="#FEC325" d="M449,10h-2.898l4-4H442V4h8.102l-4-4H449l5.102,5.101L449,10z"/>
	</g>
	<g>
		<path d="M449,23h-2.898l4-4H442v-2h8.102l-4-4H449l5.102,5.101L449,23z"/>
	</g>
	<g>
		<path fill="#83847A" d="M449,36h-2.898l4-4H442v-2h8.102l-4-4H449l5.102,5.101L449,36z"/>
	</g>
	<g>
		<path fill="#FFFFFF" d="M340.27,18L331,9l9.27-9l0.479,0.493L331.991,9l8.759,8.506L340.27,18z"/>
	</g>
	<g>
		<path fill="#FFFFFF" d="M342,17.506L350.76,9L342,0.493L342.48,0l9.27,9l-9.27,9L342,17.506z"/>
	</g>
	<g>
		<path fill="#FEC325" d="M419,0c-3.865,0-7,3.135-7,7c0,3.865,3.135,7,7,7s7-3.135,7-7C426,3.135,422.865,0,419,0L419,0z
			 M420,12.67V9.053h-2v3.617c-2-0.27-4.402-2.617-4.67-4.617H416v-2h-2.67c0.267-2,2.67-4.455,4.67-4.723v2.723h2V1.33
			c2,0.27,4.4,2.723,4.67,4.723H422v2h2.67C424.4,10.053,422,12.4,420,12.67L420,12.67z"/>
	</g>
	<g>
		<path fill="#FEC325" d="M408,0h-10c-1.65,0-3,1.356-3,3.006v6c0,1.65,1.35,2.994,3,2.994h10c1.647,0,3-1.344,3-2.994v-6
			C411,1.356,409.65,0,408,0L408,0z M401,10.006v-8l5,4L401,10.006z"/>
	</g>
	<g>
		<path fill="#FEC325" d="M393.495,2.397c-0.393-0.389-0.781-0.338-1.334-0.338h-1.75l-0.396-1.309
			c-0.1-0.256-0.281-0.353-0.545-0.538c-0.262-0.184-0.531-0.153-0.807-0.153h-4.002c-0.275,0-0.545-0.153-0.81,0.03
			c-0.264,0.186-0.441,0.529-0.543,0.784l-0.396,1.186h-1.75c-0.554,0-1.105-0.051-1.496,0.338C379.276,2.788,379,3.013,379,3.565v7
			c0,0.553,0.276,1.271,0.666,1.662c0.393,0.39,0.942,0.833,1.496,0.833h10.998c0.553,0,0.942-0.442,1.334-0.833
			c0.391-0.392,0.506-1.109,0.506-1.662v-7C394.001,3.014,393.885,2.789,393.495,2.397L393.495,2.397z M389.135,9.54
			c-0.686,0.685-1.51,1.026-2.475,1.026c-0.963,0-1.787-0.342-2.475-1.026c-0.686-0.685-1.023-1.51-1.023-2.473
			c0-0.964,0.342-1.788,1.023-2.473c0.688-0.685,1.512-1.028,2.475-1.028c0.965,0,1.789,0.344,2.475,1.028
			c0.688,0.684,1.027,1.509,1.027,2.473C390.163,8.03,389.819,8.854,389.135,9.54L389.135,9.54z"/>
		<path fill="#FEC325" d="M386.661,4.815c-0.619,0-1.148,0.221-1.588,0.66c-0.441,0.44-0.66,0.971-0.66,1.591
			c0,0.619,0.219,1.149,0.66,1.59c0.438,0.439,0.969,0.66,1.588,0.66c0.621,0,1.148-0.221,1.59-0.66
			c0.438-0.44,0.66-0.971,0.66-1.59c0-0.62-0.221-1.15-0.66-1.591C387.814,5.037,387.282,4.815,386.661,4.815L386.661,4.815z"/>
	</g>
	<path fill="#FEC325" d="M367,0v13.586l5.5-3.934l5.5,3.934V0H367z"/>
	<polygon fill="#FEC325" points="359.362,0 361.1,5.349 366.725,5.349 362.174,8.825 363.911,14.262 359.362,10.999 354.814,14.327 
		356.555,8.815 352,5.349 357.625,5.349 	"/>
	<g>
		<path fill="#FEC325" d="M435.199,12h-3.4l4.801-4.8H427V4.8h9.6L431.799,0h3.4l6,6L435.199,12z"/>
	</g>
	<path fill="#FFFFFF" d="M283,19.003l-5.175-3.791c0.882-1.498,1.396-3.238,1.396-5.101c0-5.575-4.535-10.111-10.109-10.111
		C263.536,0.001,259,4.537,259,10.111c0,5.575,4.535,10.11,10.109,10.11c2.766,0,5.273-1.117,7.101-2.922l5.231,3.83L283,19.003z
		 M269.109,17.585c-4.121,0-7.473-3.354-7.473-7.474c0-4.121,3.352-7.473,7.473-7.473s7.475,3.351,7.475,7.473
		C276.584,14.231,273.23,17.585,269.109,17.585z"/>
	<g>
		<g>
			<path fill="#FEC325" d="M524.976,70.521c0,1.101-0.389,2.273-1.469,2.679c-3.557,1.332-6.985,1.8-11.323,1.8
				c-11.925,0-22.451-8.547-22.451-22.629c0-14.653,10.612-27.37,26.848-27.37c12.645,0,21.688,8.693,21.688,20.764
				c0,10.486-5.896,16.93-13.655,16.93c-3.376,0-5.825-1.694-6.182-5.694h-0.144c-2.229,4-5.462,5.694-9.269,5.694
				c-4.672,0-8.048-3.366-8.048-9.257c0-8.761,6.467-16.696,16.813-16.696c1.723,0,3.576,0.254,5.195,0.631
				c1.928,0.449,3.172,2.32,2.855,4.272l-1.656,10.218c-0.721,4.242-0.218,6.182,1.795,6.252c3.089,0.074,6.967-3.876,6.967-12.139
				c0-9.338-6.033-16.595-17.169-16.595c-10.991,0-20.619,8.623-20.619,22.344c0,11.997,7.689,18.823,18.392,18.823
				c2.849,0,5.825-0.479,8.359-1.398c0.548-0.199,1.308-0.165,1.829,0.094c0.523,0.259,1.244,0.72,1.244,1.276V70.521z
				 M518.86,42.744c-0.574-0.142-1.293-0.287-2.227-0.287c-4.744,0-8.479,4.67-8.479,10.202c0,2.729,1.223,4.451,3.592,4.451
				c2.658,0,5.461-3.375,6.107-7.542L518.86,42.744z M518.86,42.744"/>
		</g>
		<path fill="#FEC325" d="M514,100c-27.57,0-50-22.43-50-50c0-27.57,22.43-50,50-50s50,22.43,50,50C564,77.57,541.57,100,514,100z
			 M514,3c-25.916,0-47,21.084-47,47s21.084,47,47,47c25.916,0,47-21.084,47-47S539.916,3,514,3z"/>
	</g>
	<g>
		<path fill="#FEC325" d="M716,100c-27.57,0-50-22.43-50-50c0-27.57,22.43-50,50-50s50,22.43,50,50C766,77.57,743.57,100,716,100z
			 M716,3c-25.916,0-47,21.084-47,47s21.084,47,47,47s47-21.084,47-47S741.916,3,716,3z"/>
		<path fill="#FEC325" d="M715.871,25c-13.809,0.068-24.934,11.326-24.865,25.135C691.074,63.93,702.336,75.07,716.141,75
			c13.807-0.086,24.936-11.328,24.853-25.137C740.922,36.055,729.678,24.928,715.871,25L715.871,25z M716.117,70.918
			c-11.563,0.063-20.963-9.256-21.035-20.807c-0.057-11.553,9.25-20.975,20.812-21.035c11.551-0.07,20.975,9.26,21.033,20.799
			C736.986,61.44,727.668,70.852,716.117,70.918L716.117,70.918z M719.818,60.934l-0.106-18.684l-9.635,0.055l0.012,4.094
			l2.619-0.012l0.082,14.594l-2.785,0.008l0.025,3.902l12.102-0.068l-0.023-3.9L719.818,60.934z M716.141,39.486
			c2.361,0,3.783-1.584,3.771-3.525c-0.059-1.984-1.445-3.502-3.713-3.49c-2.268,0.014-3.736,1.553-3.736,3.539
			C712.477,37.947,713.92,39.512,716.141,39.486L716.141,39.486z M716.141,39.486"/>
	</g>
	<g>
		<path fill="#FEC325" d="M615,100c-27.57,0-50-22.43-50-50c0-27.57,22.43-50,50-50s50,22.43,50,50C665,77.57,642.57,100,615,100z
			 M615,3c-25.916,0-47,21.084-47,47s21.084,47,47,47s47-21.084,47-47S640.916,3,615,3z"/>
		<g>
			<path fill="#FEC325" d="M639.97,32.844c-0.283-0.475-0.75-0.807-1.289-0.914l-28.595-6.895c-0.942-0.182-1.872,0.338-2.198,1.238
				l-10.899,27.689l3.639,1.326l10.329-26.328l24.846,6.34c-1.552,4.811-5.244,14.851-8.784,24.199
				c-3.085,8.156-4.86,10.949-8.236,11.52c-0.004-0.004-0.007-0.008-0.007-0.014C611.876,71.973,612,63.18,612,63.18l-22.029-8.898
				c-1.565,9.922,6.059,12.309,6.059,12.309l16.129,7.322c0.004,0.002,2.521,1.201,5.258,1.078
				c7.382-0.174,9.976-5.533,13.226-14.119c4.695-12.41,9.461-26.314,9.508-26.461C640.317,33.883,640.251,33.316,639.97,32.844
				L639.97,32.844z M639.97,32.844"/>
			<path fill="#FEC325" d="M626.935,44.01c0.168,0.047,0.342,0.07,0.514,0.07c0.85,0,1.627-0.566,1.865-1.426
				c0.283-1.033-0.329-2.098-1.359-2.379l-8.393-2.592c-1.019-0.281-2.098,0.324-2.379,1.355c-0.281,1.033,0.324,2.1,1.359,2.381
				L626.935,44.01z M626.935,44.01"/>
			<path fill="#FEC325" d="M613.823,46.797c-0.337,1.018,0.209,2.111,1.223,2.451l8.349,2.983c0.203,0.068,0.401,0.098,0.604,0.1
				c0.814,0.004,1.576-0.51,1.849-1.322c0.337-1.014-0.208-2.111-1.227-2.449l-8.345-2.982
				C615.256,45.238,614.163,45.785,613.823,46.797L613.823,46.797z M613.823,46.797"/>
			<path fill="#FEC325" d="M613.088,53.66c-1.016-0.34-2.111,0.215-2.444,1.234c-0.334,1.012,0.223,2.109,1.238,2.441l8.366,2.971
				c0.201,0.068,0.402,0.098,0.606,0.098c0.813,0,1.57-0.518,1.838-1.33c0.334-1.018-0.221-2.113-1.236-2.445L613.088,53.66z
				 M613.088,53.66"/>
			<path fill="#FEC325" d="M612.778,35.426c1.186,0,2.147,0.936,2.147,2.088c0,1.154-0.962,2.088-2.147,2.088
				c-1.187,0-2.147-0.934-2.147-2.088C610.631,36.361,611.592,35.426,612.778,35.426L612.778,35.426z M612.778,35.426"/>
			<path fill="#FEC325" d="M609.74,43.188c1.188,0,2.148,0.935,2.148,2.088c0,1.15-0.96,2.084-2.148,2.084
				c-1.186,0-2.148-0.934-2.148-2.084C607.592,44.123,608.554,43.188,609.74,43.188L609.74,43.188z M609.74,43.188"/>
			<path fill="#FEC325" d="M606.5,51.195c1.187,0,2.148,0.936,2.148,2.09c0,1.152-0.962,2.086-2.148,2.086s-2.148-0.934-2.148-2.086
				C604.352,52.131,605.313,51.195,606.5,51.195L606.5,51.195z M606.5,51.195"/>
		</g>
	</g>
	<g>
		<g>
			<path d="M58.728,149.986v7.792h-1.941v-7.792H54v-1.913h7.514v1.913H58.728z"/>
			<path d="M68.999,157.778v-4.076H65.02v4.076h-1.941v-9.705h1.941v3.716h3.979v-3.716h1.941v9.705H68.999z"/>
			<path d="M73.29,157.778v-9.705h6.738v1.9h-4.797v1.678h2.787v1.886h-2.787v2.343h5.005v1.899H73.29z"/>
			<path d="M90.055,157.931c-2.537,0-4.27-1.857-4.27-4.991c0-3.133,1.761-5.019,4.298-5.019c2.523,0,4.256,1.858,4.256,4.991
				C94.339,156.046,92.579,157.931,90.055,157.931z M90.041,149.848c-1.358,0-2.26,1.096-2.26,3.064
				c0,1.969,0.942,3.092,2.301,3.092c1.359,0,2.26-1.096,2.26-3.064C92.343,150.971,91.399,149.848,90.041,149.848z"/>
			<path d="M98.136,149.973v1.831h2.926v1.885h-2.926v4.09h-1.941v-9.705h6.946v1.9H98.136z"/>
			<path d="M106.572,149.973v1.831h2.926v1.885h-2.926v4.09h-1.941v-9.705h6.946v1.9H106.572z"/>
			<path d="M113.135,157.778v-9.705h1.941v9.705H113.135z"/>
			<path d="M123.043,150.901c-0.347-0.665-0.901-1.054-1.774-1.054c-1.456,0-2.288,1.276-2.288,3.078
				c0,1.747,0.846,3.078,2.302,3.078c0.874,0,1.387-0.374,1.899-1.234l1.636,0.972c-0.666,1.372-1.831,2.189-3.591,2.189
				c-2.537,0-4.242-1.94-4.242-5.005c0-2.953,1.774-5.005,4.312-5.005c1.831,0,2.939,0.888,3.549,2.149L123.043,150.901z"/>
			<path d="M126.574,157.778v-9.705h1.941v9.705H126.574z"/>
			<path d="M137.246,157.778l-0.762-2.163h-3.549l-0.763,2.163h-2.08l3.715-9.705h1.886l3.688,9.705H137.246z M135.193,152.011
				c-0.194-0.568-0.388-1.15-0.485-1.511c-0.097,0.36-0.292,0.942-0.485,1.511l-0.624,1.761h2.218L135.193,152.011z"/>
			<path d="M140.92,157.778v-9.705h1.94v7.792h4.867v1.913H140.92z"/>
			<path d="M155.48,149.973v1.831h2.926v1.885h-2.926v4.09h-1.941v-9.705h6.946v1.9H155.48z"/>
			<path d="M165.691,157.931c-2.537,0-4.27-1.857-4.27-4.991c0-3.133,1.76-5.019,4.297-5.019c2.523,0,4.257,1.858,4.257,4.991
				C169.975,156.046,168.214,157.931,165.691,157.931z M165.677,149.848c-1.358,0-2.26,1.096-2.26,3.064
				c0,1.969,0.942,3.092,2.301,3.092c1.359,0,2.26-1.096,2.26-3.064C167.979,150.971,167.036,149.848,165.677,149.848z"/>
			<path d="M177.39,150.901c-0.347-0.665-0.901-1.054-1.775-1.054c-1.455,0-2.288,1.276-2.288,3.078
				c0,1.747,0.846,3.078,2.302,3.078c0.873,0,1.386-0.374,1.899-1.234l1.636,0.972c-0.666,1.372-1.83,2.189-3.591,2.189
				c-2.537,0-4.243-1.94-4.243-5.005c0-2.953,1.775-5.005,4.312-5.005c1.83,0,2.939,0.888,3.549,2.149L177.39,150.901z"/>
			<path d="M184.68,157.931c-2.344,0-3.924-1.58-3.924-4.408v-5.449h1.941v5.422c0,1.553,0.749,2.537,1.983,2.537
				s1.996-0.957,1.996-2.51v-5.449h1.941v5.422C188.618,156.309,187.148,157.931,184.68,157.931z"/>
			<path d="M193.957,157.931c-1.622,0-3.037-0.679-3.771-1.761l1.4-1.248c0.679,0.791,1.552,1.11,2.482,1.11
				c1.15,0,1.691-0.319,1.691-1.055c0-0.623-0.332-0.901-2.163-1.316c-1.788-0.416-3.036-0.985-3.036-2.898
				c0-1.76,1.553-2.842,3.467-2.842c1.511,0,2.62,0.569,3.535,1.525l-1.4,1.358c-0.624-0.638-1.317-0.998-2.204-0.998
				c-1.04,0-1.387,0.443-1.387,0.873c0,0.61,0.415,0.805,1.955,1.165c1.539,0.36,3.244,0.888,3.244,2.994
				C197.769,156.684,196.605,157.931,193.957,157.931z"/>
			<path d="M207.575,157.931c-2.537,0-4.271-1.857-4.271-4.991c0-3.133,1.761-5.019,4.298-5.019c2.524,0,4.256,1.858,4.256,4.991
				C211.859,156.046,210.098,157.931,207.575,157.931z M207.561,149.848c-1.358,0-2.26,1.096-2.26,3.064
				c0,1.969,0.943,3.092,2.302,3.092c1.359,0,2.26-1.096,2.26-3.064C209.862,150.971,208.919,149.848,207.561,149.848z"/>
			<path d="M215.656,149.973v1.831h2.926v1.885h-2.926v4.09h-1.94v-9.705h6.946v1.9H215.656z"/>
			<path d="M230.508,149.986v7.792h-1.94v-7.792h-2.787v-1.913h7.514v1.913H230.508z"/>
			<path d="M240.779,157.778v-4.076H236.8v4.076h-1.94v-9.705h1.94v3.716h3.979v-3.716h1.941v9.705H240.779z"/>
			<path d="M245.07,157.778v-9.705h6.738v1.9h-4.797v1.678h2.787v1.886h-2.787v2.343h5.005v1.899H245.07z"/>
			<path d="M261.961,157.931c-2.344,0-3.925-1.58-3.925-4.408v-5.449h1.941v5.422c0,1.553,0.749,2.537,1.983,2.537
				c1.234,0,1.996-0.957,1.996-2.51v-5.449h1.941v5.422C265.898,156.309,264.429,157.931,261.961,157.931z"/>
			<path d="M268.635,157.931c-0.707,0-1.303-0.596-1.303-1.303c0-0.708,0.596-1.304,1.303-1.304c0.708,0,1.303,0.596,1.303,1.304
				C269.938,157.335,269.342,157.931,268.635,157.931z"/>
			<path d="M275.138,157.931c-1.622,0-3.036-0.679-3.771-1.761l1.4-1.248c0.679,0.791,1.553,1.11,2.482,1.11
				c1.15,0,1.691-0.319,1.691-1.055c0-0.623-0.333-0.901-2.163-1.316c-1.789-0.416-3.037-0.985-3.037-2.898
				c0-1.76,1.553-2.842,3.466-2.842c1.512,0,2.621,0.569,3.537,1.525l-1.4,1.358c-0.624-0.638-1.317-0.998-2.205-0.998
				c-1.04,0-1.387,0.443-1.387,0.873c0,0.61,0.417,0.805,1.956,1.165c1.539,0.36,3.244,0.888,3.244,2.994
				C278.951,156.684,277.786,157.931,275.138,157.931z"/>
			<path d="M281.686,157.931c-0.707,0-1.303-0.596-1.303-1.303c0-0.708,0.596-1.304,1.303-1.304c0.707,0,1.303,0.596,1.303,1.304
				C282.989,157.335,282.393,157.931,281.686,157.931z"/>
			<path d="M295.304,157.778l-0.763-2.163h-3.549l-0.762,2.163h-2.08l3.715-9.705h1.886l3.688,9.705H295.304z M293.251,152.011
				c-0.193-0.568-0.388-1.15-0.484-1.511c-0.098,0.36-0.292,0.942-0.486,1.511l-0.624,1.761h2.218L293.251,152.011z"/>
			<path d="M304.606,157.778l-1.732-3.493h-1.955v3.493h-1.941v-9.705h4.52c1.831,0,3.341,1.013,3.341,3.078
				c0,1.455-0.624,2.371-1.858,2.856l1.858,3.77H304.606z M303.456,149.959h-2.537v2.495h2.537c0.901,0,1.386-0.415,1.386-1.261
				C304.842,150.319,304.315,149.959,303.456,149.959z"/>
			<path d="M315.875,157.778v-3.563c0-0.527,0.028-1.762,0.028-2.136c-0.139,0.36-0.43,1.054-0.68,1.608L313.254,158l-1.968-4.311
				c-0.249-0.555-0.54-1.248-0.68-1.608c0,0.374,0.028,1.608,0.028,2.136v3.563h-1.899v-9.705h1.871l2.025,4.396
				c0.25,0.54,0.541,1.275,0.665,1.622c0.125-0.36,0.402-1.067,0.652-1.622l1.955-4.396h1.913v9.705H315.875z"/>
			<path d="M324.848,153.939v3.84h-1.941v-3.799l-3.675-5.906h2.232l1.374,2.302c0.346,0.583,0.872,1.539,1.053,1.899
				c0.181-0.36,0.693-1.29,1.053-1.899l1.373-2.302h2.205L324.848,153.939z"/>
		</g>
		<g>
			<path d="M54.252,123.465l10.052-0.631c0.218,1.633,0.661,2.878,1.33,3.732c1.088,1.384,2.644,2.075,4.665,2.075
				c1.508,0,2.671-0.353,3.487-1.061c0.816-0.708,1.225-1.528,1.225-2.461c0-0.887-0.389-1.68-1.167-2.379
				c-0.777-0.7-2.581-1.36-5.411-1.982c-4.633-1.042-7.938-2.426-9.913-4.152c-1.991-1.726-2.985-3.926-2.985-6.601
				c0-1.757,0.509-3.416,1.528-4.979c1.018-1.563,2.55-2.791,4.595-3.686c2.044-0.894,4.848-1.341,8.408-1.341
				c4.37,0,7.701,0.813,9.995,2.438c2.293,1.625,3.658,4.21,4.093,7.755l-9.959,0.584c-0.265-1.54-0.82-2.659-1.668-3.358
				c-0.847-0.7-2.017-1.05-3.51-1.05c-1.229,0-2.154,0.26-2.776,0.781c-0.622,0.521-0.933,1.154-0.933,1.9
				c0,0.545,0.256,1.034,0.77,1.47c0.498,0.451,1.679,0.87,3.545,1.26c4.618,0.995,7.926,2.001,9.925,3.021
				c1.997,1.019,3.452,2.281,4.361,3.79c0.91,1.508,1.365,3.195,1.365,5.062c0,2.191-0.606,4.213-1.819,6.063
				c-1.213,1.851-2.908,3.254-5.085,4.21c-2.178,0.956-4.922,1.435-8.234,1.435c-5.816,0-9.843-1.12-12.082-3.358
				C55.814,129.762,54.546,126.916,54.252,123.465z"/>
			<path d="M87.428,100.583h32.117v8.443H108.77v25.75H98.204v-25.75H87.428V100.583z"/>
			<path d="M140.963,129.132h-11.995l-1.666,5.645h-10.788l12.851-34.193h11.525l12.849,34.193h-11.064L140.963,129.132z
				 M138.772,121.738l-3.774-12.292l-3.735,12.292H138.772z"/>
			<path d="M156.756,100.583h9.866l12.875,18.918v-18.918h9.959v34.193h-9.959l-12.805-18.774v18.774h-9.936V100.583z"/>
			<path d="M195.929,100.583h15.697c3.094,0,5.594,0.42,7.499,1.26c1.905,0.84,3.479,2.045,4.723,3.615
				c1.244,1.57,2.146,3.398,2.706,5.482c0.56,2.084,0.84,4.291,0.84,6.624c0,3.654-0.417,6.488-1.248,8.501
				c-0.831,2.014-1.986,3.701-3.463,5.061c-1.478,1.361-3.064,2.267-4.758,2.718c-2.317,0.621-4.417,0.933-6.298,0.933h-15.697
				V100.583z M206.495,108.327v18.683h2.589c2.208,0,3.778-0.245,4.711-0.735c0.933-0.489,1.664-1.345,2.193-2.565
				c0.529-1.221,0.792-3.199,0.792-5.936c0-3.624-0.591-6.104-1.772-7.44c-1.182-1.338-3.141-2.006-5.878-2.006H206.495z"/>
			<path d="M231.804,118.636h13.808v7.348h-13.808V118.636z"/>
			<path d="M243.774,100.583h32.117v8.443h-10.775v25.75h-10.566v-25.75h-10.775V100.583z"/>
			<path d="M317.808,100.583h10.146v7.791l-1.959,15.65h-6.275l-1.912-15.65V100.583z M318.158,126.402h9.469v8.374h-9.469V126.402z
				"/>
			<path d="M309.027,104.584c-3.079-3.056-7.463-4.584-13.155-4.584c-5.551,0-9.882,1.555-12.992,4.665
				c-3.11,3.11-4.665,7.456-4.665,13.038c0,3.997,0.786,7.324,2.357,9.982c1.57,2.659,3.619,4.603,6.146,5.831
				c2.527,1.229,5.718,1.843,9.574,1.843c3.794,0,6.962-0.712,9.505-2.134c2.542-1.423,4.485-3.413,5.831-5.971
				c1.345-2.559,2.017-5.835,2.017-9.832C313.645,111.919,312.106,107.639,309.027,104.584z M301.342,125.898l-5.411-3.971
				l-5.412,3.916l2.07-6.227l-5.416-3.792h6.692l2.066-6.363l2.066,6.363h6.69l-5.415,3.783L301.342,125.898z"/>
		</g>
	</g>
	<g>
		<g>
			<path fill="#FFC627" d="M49.529,149.144c0-0.732,0.582-1.211,1.233-1.211c0.656,0,1.238,0.479,1.238,1.211
				c0,0.732-0.582,1.204-1.238,1.204C50.111,150.348,49.529,149.876,49.529,149.144z M50.763,148.19
				c-0.516,0-0.917,0.395-0.917,0.954c0,0.553,0.401,0.95,0.917,0.95c0.512,0,0.921-0.397,0.921-0.95
				C51.684,148.585,51.274,148.19,50.763,148.19z M50.55,149.815h-0.269v-1.35h0.515c0.334,0,0.523,0.108,0.523,0.398
				c0,0.248-0.155,0.346-0.33,0.365l0.33,0.586h-0.297l-0.307-0.577H50.55V149.815z M50.55,149.028h0.231
				c0.192,0,0.264-0.057,0.264-0.188c0-0.125-0.085-0.171-0.275-0.171h-0.22V149.028z"/>
		</g>
		<path fill="#231F20" d="M4.077,148.211c-2.248,0-4.076,1.828-4.076,4.075v9.383c0,2.248,1.829,4.076,4.076,4.076h41.267
			c2.248,0,4.077-1.828,4.077-4.076v-9.383c0-2.247-1.829-4.075-4.077-4.075H4.077z"/>
		<g>
			<path fill="#FFC627" d="M45.344,149.512H4.077c-1.531,0-2.775,1.244-2.775,2.774v9.383c0,1.53,1.244,2.774,2.775,2.774h41.267
				c1.531,0,2.775-1.244,2.775-2.774v-9.383C48.119,150.756,46.875,149.512,45.344,149.512z M46.818,161.669
				c0,0.812-0.663,1.474-1.474,1.474H4.077c-0.811,0-1.474-0.662-1.474-1.474v-9.383c0-0.811,0.663-1.474,1.474-1.474h41.267
				c0.811,0,1.474,0.663,1.474,1.474V161.669z"/>
		</g>
		<path fill="#231F20" d="M4.077,100c-2.248,0-4.076,1.829-4.076,4.076v38.811c0,2.247,1.829,4.075,4.076,4.075h41.267
			c2.248,0,4.077-1.828,4.077-4.075v-38.811c0-2.247-1.829-4.076-4.077-4.076H4.077z"/>
		<g>
			<path fill="#FFC627" d="M45.344,101.301H4.077c-1.531,0-2.775,1.246-2.775,2.775v38.811c0,1.53,1.244,2.774,2.775,2.774h41.267
				c1.531,0,2.775-1.244,2.775-2.774v-38.811C48.119,102.547,46.875,101.301,45.344,101.301z M46.818,142.887
				c0,0.811-0.663,1.475-1.474,1.475H4.077c-0.811,0-1.474-0.663-1.474-1.475v-38.811c0-0.811,0.663-1.474,1.474-1.474h41.267
				c0.811,0,1.474,0.663,1.474,1.474V142.887z"/>
		</g>
		<g>
			<path fill="#FFFFFF" d="M10.15,159.853l-1.21,1.174H6.852l-1.243-1.174v-6.925h1.865v6.574h0.813v-6.574h1.864V159.853z"/>
			<path fill="#FFFFFF" d="M12.647,161.026h-1.864v-1.557h1.864V161.026z"/>
			<path fill="#FFFFFF" d="M16.625,152.928l1.31,1.176v1.435h-1.864v-1.085h-0.769v1.649l1.357,0.112l1.276,1.176v2.462
				l-1.219,1.174h-2.067l-1.209-1.174v-1.423h1.863v1.072h0.769v-1.694l-1.333-0.101l-1.299-1.175v-2.429l1.22-1.176H16.625z"/>
			<path fill="#FFFFFF" d="M20.443,161.026h-1.864v-1.557h1.864V161.026z"/>
			<path fill="#FFFFFF" d="M24.16,158.012h-0.813l0.283-3.366h0.181L24.16,158.012z M25.075,152.928h-2.699l-1.141,8.099h1.818
				l0.158-1.489h1.085l0.158,1.489h1.83L25.075,152.928z"/>
			<path fill="#FFFFFF" d="M29.675,154.453v1.818h-0.78v-1.818H29.675z M31.482,154.104l-1.254-1.176h-3.197v8.099h1.864v-3.23h0.78
				v3.23h1.807v-3.23l-0.938-0.791l0.938-0.779V154.104z"/>
			<path fill="#FFFFFF" d="M38.251,161.026h-1.707v-5.139h-0.079l-0.779,5.139h-0.689l-0.78-5.139h-0.078v5.139h-1.707v-8.099h2.192
				l0.656,3.92h0.169l0.61-3.92h2.192V161.026z"/>
			<path fill="#FFFFFF" d="M42.476,157.639v3.388h-1.864v-3.388l-1.604-4.711h1.863l0.667,2.926h0.022l0.667-2.926h1.864
				L42.476,157.639z"/>
		</g>
		<polygon fill="#FFC627" points="36.224,141.178 24.71,132.807 13.195,141.178 17.599,127.639 6.075,119.277 20.315,119.277 
			24.71,105.732 29.106,119.277 43.346,119.277 31.823,127.639 36.224,141.178 		"/>
		<polygon fill="#231F20" points="33.653,137.638 24.71,131.137 15.766,137.638 19.186,127.122 10.237,120.628 21.297,120.628 
			24.71,110.108 28.125,120.628 39.185,120.628 30.234,127.123 33.653,137.638 		"/>
		<polygon fill="#FFFFFF" points="24.71,114.323 27.179,121.929 35.176,121.929 28.705,126.625 31.177,134.229 24.71,129.527 
			18.243,134.229 20.716,126.625 14.245,121.929 22.242,121.929 		"/>
	</g>
</g>
</svg>
